<?xml version="1.0" encoding="UTF-8"?>
<svg id="_レイヤー_1" data-name="レイヤー 1" xmlns="http://www.w3.org/2000/svg" viewBox="0 0 355.81 116.26">
  <defs>
    <style>
      .cls-1 {
        fill: #be481f;
      }
    </style>
  </defs>
  <path class="cls-1" d="M71.64,24.62c-1.81-2.69-4.09-4.86-6.95-6.38-.97-.52-2.28-.76-2.64.26-.13.71.51,1.34.94,2.04,3.56,5.82,3.91,12.46-2.34,16.02-.94.53-1.49,1.78-1.68,2.37-.57,1.51-.98,3.04-1.65,4.49-2.46,5.34-3.73,5.81-7.58,9.74l-2.55,2.62c-.51.51-2.28,3.76-1.39,3.87l5.78.72c.43.05,1.15-.66,1.38-1.04.36-.63,1.11-.83,1.82-.66l2.01.36c1.5.18,3.05.12,4.51-.3.65-.18,1.67-.39,3.32-2.1,1.82-1.88.85-1.02,2.56-3,2.4-2.81,6.78-9.98,7.42-13.65.94-5.34.07-10.86-2.96-15.36ZM58.31,56.53c-1.33,0-2.42-1.09-2.42-2.43s1.09-2.42,2.42-2.42,2.43,1.08,2.43,2.42-1.09,2.43-2.43,2.43Z"/>
  <g>
    <g>
      <path class="cls-1" d="M174.35,41.13c-5.15,1.42-8.32,6.1-8.32,11.35v31.24s-8.09-.01-8.09-.01v-32.79c0-4.29-1.41-9.06-6.1-10.04-2.56-.54-5.19-.58-7.73.44-4.59,1.83-8.39,6.33-8.41,11.48l-.11,30.92h-8.07s0-49.11,0-49.11l7.59-.02.08,7.34c3.27-4.93,8.06-7.96,13.89-8.36,3.03-.33,5.95.03,8.79,1.07,3.32,1.21,5.68,3.65,6.8,7.17,2.79-4.41,7.1-7.29,12.21-8.08,3.74-.58,7.53-.27,11.1.92,5.87,1.94,8.46,6.99,8.46,13.01v36.08s-8.09-.01-8.09-.01v-32.79c0-4.54-1.35-8.99-6.25-10.05-2.58-.56-5.2-.46-7.76.25Z"/>
      <path class="cls-1" d="M235.83,84.15c-11.35,2.32-22.81-1.65-27.53-12.65-3.07-7.15-3.12-16.37-.41-23.65,2.61-7.01,8.39-12.11,15.72-13.73,3.92-.87,7.9-.89,11.85-.12,7.5,1.46,13.5,6.63,16.19,13.75,2.78,7.36,2.72,16.89-.53,24.1-2.86,6.34-8.36,10.88-15.28,12.3ZM243.57,68.02c2.3-6.02,2.07-14.1-.95-19.75-2.57-4.81-7.34-7.72-12.81-7.73s-10.2,2.85-12.79,7.61c-3.14,5.76-3.3,13.96-.98,19.96s7.66,9.63,13.85,9.58,11.42-3.77,13.67-9.67Z"/>
    </g>
    <g>
      <path class="cls-1" d="M355.81,57.47v3.63c-.37,4.03-1.09,7.96-2.98,11.68-2.87,5.64-7.87,9.71-14.07,11.2-4.53,1.08-9.21,1.08-13.73-.04-6.65-1.64-11.89-6.18-14.58-12.43-3.07-7.15-3.12-16.38-.41-23.65,2.57-6.91,8.23-11.98,15.45-13.66,4.09-.96,8.28-.98,12.41-.12,6.88,1.43,12.46,6,15.35,12.35,1.63,3.58,2.22,7.27,2.57,11.06ZM345.72,68.02c2.3-6.02,2.07-14.1-.95-19.75-2.57-4.81-7.34-7.72-12.81-7.73s-10.2,2.85-12.79,7.61c-3.14,5.76-3.3,13.96-.98,19.96s7.66,9.63,13.85,9.58,11.42-3.77,13.67-9.67Z"/>
      <path class="cls-1" d="M282.1,91.35c-2.08,4.79-4.51,10.28-10.05,11.62-3.12.75-6.31.57-9.41-.38v-7.36c1.64.59,3.15,1.06,4.84,1.13,2.8,0,5.27-1.43,6.32-4.06l3.55-8.82-19.47-48.79,9.11-.03,14.46,40.39,13.88-40.38,8.55.02-21.78,56.67Z"/>
    </g>
  </g>
  <path class="cls-1" d="M116.32,58.13c0,32.1-26.04,58.13-58.16,58.13S0,90.23,0,58.13,26.04,0,58.16,0s58.16,26.03,58.16,58.13ZM112.76,58.11c0-30.13-24.44-54.56-54.59-54.56S3.58,27.98,3.58,58.11s24.44,54.56,54.59,54.56,54.59-24.43,54.59-54.56Z"/>
  <path class="cls-1" d="M98.58,83.47c-.62-.97-5.81-9.02-11.58-9.38-3.82-.24-4.35,2.41-7.07-1.04l-1.53-1.94c-2.46-3.12-3.44-7.84-4.35-11.83l1.3-.17c3.58-.46,8.41.25,11.75,1.79l1.43.66c.81.37,2.88,1.68,3.59,2.23,3.4,2.62,5.92,6.03,7.37,10.06.58,1.6.76,3.22,1,4.91.15,1.04.22,4.5-.67,4.92-.35.17-1,.14-1.24-.23Z"/>
  <path class="cls-1" d="M95.44,89.46c-.56-.47-1.42-.23-2.24-.21-6.82.17-12.75-2.84-12.7-10.04,0-1.08-.8-2.18-1.21-2.64-1.02-1.25-2.14-2.37-3.06-3.67-3.39-4.8-3.17-6.14-4.65-11.43l-.99-3.52c-.19-.7-2.12-3.85-2.66-3.14l-3.51,4.65c-.26.35,0,1.33.21,1.72.37.63.16,1.38-.34,1.91l-1.33,1.56c-.9,1.21-1.62,2.58-1.99,4.06-.16.65-.49,1.64.17,3.92.72,2.52.46,1.25,1.32,3.72,1.23,3.48,5.25,10.86,8.11,13.25,4.15,3.48,9.37,5.49,14.78,5.12,3.23-.22,6.25-1.11,9-2.83.94-.58,1.79-1.59,1.09-2.42ZM68.57,69.64c-.67,1.16-2.15,1.56-3.31.89-1.16-.67-1.56-2.15-.89-3.31.67-1.16,2.15-1.56,3.31-.89,1.16.67,1.56,2.15.89,3.31Z"/>
  <path class="cls-1" d="M20.94,88.77c1.15-.05,10.72-.53,13.91-5.34,2.12-3.19.09-4.97,4.43-5.6l2.44-.36c3.94-.57,8.51.94,12.42,2.15l-.5,1.21c-1.39,3.33-4.43,7.16-7.43,9.28l-1.29.91c-.73.51-2.9,1.65-3.73,1.99-3.97,1.63-8.18,2.11-12.39,1.35-1.68-.3-3.17-.96-4.75-1.59-.98-.39-4.01-2.06-3.93-3.04.03-.39.38-.94.81-.96Z"/>
  <path class="cls-1" d="M61.08,76.55l-2.27-5.37c-.17-.4-1.15-.67-1.59-.68-.73,0-1.27-.55-1.48-1.25l-.69-1.93c-.6-1.38-1.42-2.7-2.52-3.75-.48-.47-1.18-1.24-3.48-1.82-2.54-.64-1.31-.23-3.88-.72-3.63-.67-12.03-.88-15.53.4-5.09,1.86-9.44,5.37-11.82,10.24-1.42,2.91-2.16,5.97-2.05,9.21.03,1.1.48,2.35,1.55,2.16.69-.25.91-1.11,1.3-1.83,3.26-5.99,8.84-9.62,15.04-5.98.93.55,2.29.4,2.89.27,1.59-.26,3.12-.67,4.71-.82,5.85-.54,6.9.33,12.23,1.69l3.54.9c.7.19,4.4.09,4.05-.73ZM51.24,70.58c-1.16.67-2.64.27-3.31-.89-.67-1.16-.27-2.64.89-3.31,1.16-.67,2.64-.27,3.31.89.67,1.16.27,2.64-.89,3.31Z"/>
  <path class="cls-1" d="M55.29,18.77c-.53,1.02-4.9,9.54-2.33,14.72,1.7,3.43,4.26,2.56,2.64,6.64l-.91,2.29c-1.47,3.7-5.07,6.9-8.07,9.68l-.8-1.04c-2.19-2.87-3.99-7.41-4.32-11.07l-.14-1.57c-.08-.89.02-3.33.14-4.22.57-4.26,2.27-8.14,5.03-11.41,1.1-1.3,2.41-2.27,3.75-3.32.83-.65,3.79-2.44,4.6-1.88.32.22.63.8.42,1.19Z"/>
</svg>
